<?xml version="1.0" encoding="utf-8"?>
<!-- Generator: Adobe Illustrator 27.1.1, SVG Export Plug-In . SVG Version: 6.00 Build 0)  -->
<svg version="1.1" id="Vrstva_1" xmlns="http://www.w3.org/2000/svg" xmlns:xlink="http://www.w3.org/1999/xlink" x="0px" y="0px"
	 viewBox="0 0 522 366" style="enable-background:new 0 0 522 366;" xml:space="preserve">
<style type="text/css">
	.st0{fill:none;stroke:#000000;stroke-miterlimit:10;}
	.st1{fill:none;stroke:#314354;stroke-miterlimit:10;}
	.st2{fill:#BDDFFF;stroke:#314354;}
	.st3{font-family:'ArialMT';}
	.st4{font-size:12px;}
	.st5{fill:none;stroke:#000000;stroke-width:2;stroke-miterlimit:10;stroke-dasharray:2,6;}
	.st6{fill:none;stroke:#B85450;stroke-miterlimit:10;}
	.st7{fill:none;stroke:#ADADAD;stroke-width:2;stroke-miterlimit:10;stroke-dasharray:6,6;}
	.st8{font-size:10px;}
	.st9{fill:#FFFFFF;stroke:#000000;stroke-miterlimit:10;}
</style>
<g>
	<path pointer-events="stroke" class="st0" d="M143,252.8L271.2,317"/>
	<path pointer-events="stroke" class="st1" d="M137.3,243.5v-180"/>
	<path pointer-events="stroke" class="st0" d="M491.3,203L282.5,316.8"/>
	<ellipse pointer-events="none" class="st2" cx="240.7" cy="81.6" rx="6.4" ry="6.4"/>
	<path pointer-events="none" class="st0" d="M234.5,80.1l-91-21.5"/>
	<path pointer-events="none" class="st0" d="M493.7,194.4L404.1,38.4"/>
	<path pointer-events="none" class="st0" d="M246.8,79.7l147.9-45"/>
	<ellipse pointer-events="none" class="st2" cx="400.9" cy="32.9" rx="6.4" ry="6.4"/>
	<g transform="translate(-0.5 -0.5)">
		<text transform="matrix(1 0 0 1 396.8301 19.5)" class="st3 st4">bi</text>
	</g>
	<ellipse pointer-events="none" class="st2" cx="276.9" cy="319.9" rx="6.4" ry="6.4"/>
	<ellipse pointer-events="none" class="st2" cx="496.9" cy="199.9" rx="6.4" ry="6.4"/>
	<ellipse pointer-events="none" class="st2" cx="137.3" cy="57.1" rx="6.4" ry="6.4"/>
	<ellipse pointer-events="none" class="st2" cx="137.3" cy="249.9" rx="6.4" ry="6.4"/>
	<path pointer-events="none" class="st5" d="M240.5,363.5L240.7,88"/>
	<path pointer-events="none" class="st6" d="M0.5,363.5h520"/>
	<path pointer-events="none" class="st5" d="M400.5,363.5l0.4-324.2"/>
	<path pointer-events="none" class="st7" d="M320.5,363.5v-310"/>
	<path pointer-events="none" class="st7" d="M240.5,56.5h160"/>
	<g transform="translate(-0.5 -0.5)">
		<text transform="matrix(1 0 0 1 208.9893 92.5)" class="st3 st4">bi+1</text>
	</g>
	<g transform="translate(-0.5 -0.5)">
		<text transform="matrix(1 0 0 1 320.4893 195.5)" class="st3 st4">(yi+yi+1)/2</text>
	</g>
	<g transform="translate(-0.5 -0.5)">
		<text transform="matrix(1 0 0 1 242.9951 49.5)" class="st3 st4">xi-xi+1</text>
	</g>
	<g transform="translate(-0.5 -0.5)">
		<text transform="matrix(1 0 0 1 10.6592 349.5)" class="st3 st4">y=0</text>
	</g>
</g>
<a xlink:href="https://www.diagrams.net/doc/faq/svg-export-text-problems"  transform="translate(0,-5)">
	<text transform="matrix(1 0 0 1 190.6333 366.5)" class="st3 st8">Text is not SVG - cannot display</text>
</a>
<path class="st9" d="M40.7-7.1"/>
<path class="st9" d="M-8.5-18.3"/>
</svg>
